<svg width="52" height="52" viewBox="0 0 52 52" fill="none" xmlns="http://www.w3.org/2000/svg">
<rect x="1" y="1" width="50" height="50" rx="11" stroke="#303030" stroke-width="2"/>
<path d="M32.9917 28.8097C31.7899 34.9075 28.4109 38.2123 26.8716 39.1025L26.7603 39.1581L27.2054 39.7145L27.3723 39.5476C31.6898 36.4764 33.3997 30.6271 33.7149 28.0864C34.2936 24.6592 33.6222 21.206 33.2142 19.9078C32.5021 15.6794 28.9116 11.5808 27.2054 10.06C26.7158 9.52591 26.1112 7.79746 25.8701 7C25.6921 7.4451 24.8687 8.18692 24.4792 8.5022C14.1975 19.9857 17.4504 30.9795 20.3621 35.041C13.7302 24.6258 21.1225 13.0088 25.6476 8.5022C25.6476 8.83602 26.2596 10.1157 26.8716 10.7277C31.3782 14.4553 34.4939 21.1874 32.9917 28.8097Z" fill="url(#paint0_linear_665_3600)" stroke="url(#paint1_linear_665_3600)" stroke-width="2"/>
<path d="M25.6476 44.8888C25.6291 43.6647 25.4584 41.0276 24.9243 40.2709C25.1769 39.0923 25.5887 36.8182 25.6778 35.1641C25.6387 34.6382 25.6335 34.1705 25.6476 33.817C25.7018 34.1637 25.7065 34.6318 25.6778 35.1641C25.7925 36.7077 26.1987 38.7527 27.2611 39.8814C26.9829 40.0854 26.4488 40.6826 26.5378 41.4393V45L25.6476 44.8888Z" fill="#A6A385"/>
<path d="M25.6476 44.8888C25.6291 43.6647 25.4584 41.0276 24.9243 40.2709C25.2581 38.7131 25.8701 35.2413 25.6476 33.817C25.592 35.2079 25.8368 38.3681 27.2611 39.8814C26.9829 40.0854 26.4488 40.6826 26.5378 41.4393V45L25.6476 44.8888Z" stroke="#A6A385"/>
<defs>
<linearGradient id="paint0_linear_665_3600" x1="33.9402" y1="23.3572" x2="17.4678" y2="23.3572" gradientUnits="userSpaceOnUse">
<stop stop-color="#499D4A"/>
<stop offset="1" stop-color="#58AA50"/>
</linearGradient>
<linearGradient id="paint1_linear_665_3600" x1="33.9402" y1="23.3572" x2="17.4678" y2="23.3572" gradientUnits="userSpaceOnUse">
<stop stop-color="#499D4A"/>
<stop offset="1" stop-color="#58AA50"/>
</linearGradient>
</defs>
</svg>
