<svg width="52" height="52" viewBox="0 0 52 52" fill="none" xmlns="http://www.w3.org/2000/svg">
<rect x="1" y="1" width="50" height="50" rx="11" stroke="#303030" stroke-width="2"/>
<path d="M36.5 24.534C36.5 22.8673 35.2 19.634 30 20.034C28.1667 19.8673 24.5 20.4339 24.5 24.0339C24.5 26.0339 27.5 27.0339 30.5 27.0339C32.8333 27.2006 37.4 28.2339 37 31.0339C36.5 34.5339 33 34.5339 30.5 34.5339C28 34.5339 24.5 34.0339 24 29.5339" stroke="#639D57" stroke-width="2"/>
<path d="M20 19V36.4738C20 36.4912 19.9978 36.5082 19.9933 36.525C19.3144 39.0142 16.1936 42.1583 9.06036 35.0602C9.02276 35.0228 9 34.9702 9 34.9172V16.1144C9 16.0435 9.03751 15.9779 9.0986 15.942L25.8986 6.05965C25.9612 6.02283 26.0388 6.02283 26.1014 6.05965L42.9014 15.942C42.9625 15.9779 43 16.0435 43 16.1144V35.8856C43 35.9565 42.9625 36.0221 42.9014 36.058L26.1024 45.9398C26.0393 45.9769 25.9609 45.9765 25.8981 45.9389L21 43" stroke="#639D57" stroke-width="2" stroke-linecap="round"/>
</svg>
