<svg width="52" height="52" viewBox="0 0 52 52" fill="none" xmlns="http://www.w3.org/2000/svg">
<rect x="1" y="1" width="50" height="50" rx="11" stroke="#303030" stroke-width="2"/>
<path d="M30.976 33.8991L28.5007 37.9329H42.6518C46.276 37.9329 46.248 35.5425 45.7809 34.3473L35.3661 17.0466C33.4606 15.2896 31.8322 16.3145 31.2562 17.0466L28.4073 21.6631L23.3633 13.3265C21.3831 10.9241 19.3935 12.3255 18.6463 13.3265L6.17648 34.4369C5.42922 36.6959 7.23509 37.7088 8.23142 37.9329H16.2644C22.5787 38.5783 26.0877 34.407 27.0529 32.2407L33.3578 21.8872L40.5035 33.8991H30.976Z" stroke="#41B883" stroke-width="1.7"/>
<path d="M21 18L12 33.5C18 34.7 20.8333 32.6667 21.5 31.5L25.5 25L21 18Z" stroke="#41B883" stroke-width="2"/>
</svg>
