<svg width="52" height="52" viewBox="0 0 52 52" fill="none" xmlns="http://www.w3.org/2000/svg">
<rect x="1" y="1" width="50" height="50" rx="11" stroke="#303030" stroke-width="2"/>
<path d="M29.8564 27.8454L27.938 30.9484H38.9052C41.7139 30.9484 41.6922 29.1096 41.3302 28.1902L33.2587 14.882C31.782 13.5305 30.52 14.3189 30.0736 14.882L27.8657 18.4331L23.9566 12.0204C22.4219 10.1724 20.88 11.2504 20.3009 12.0204L10.6368 28.2592C10.0576 29.9968 11.4572 30.776 12.2294 30.9484H18.4549C23.3485 31.4449 26.068 28.2362 26.816 26.5698L31.7023 18.6055L37.2402 27.8454H29.8564Z" stroke="#41B883" stroke-width="1.4"/>
<path d="M36.7192 37.7622H37.875V42.8963H36.7192V37.7622Z" fill="#00DD83"/>
<path d="M33.489 43C33.1285 43 32.8173 42.9506 32.5555 42.8518C32.2938 42.7481 32.0765 42.6073 31.9036 42.4295C31.7357 42.2468 31.6097 42.032 31.5258 41.785C31.4467 41.5331 31.4072 41.2565 31.4072 40.9553V37.7622H32.5629V40.8589C32.5629 41.0664 32.5852 41.2442 32.6296 41.3924C32.679 41.5356 32.7432 41.6541 32.8222 41.748C32.9062 41.8369 33.005 41.9011 33.1186 41.9406C33.2371 41.9801 33.3655 41.9998 33.5038 41.9998C33.7853 41.9998 34.0125 41.9134 34.1854 41.7406C34.3632 41.5677 34.4521 41.2738 34.4521 40.8589V37.7622H35.6078V40.9553C35.6078 41.2565 35.5658 41.5331 35.4819 41.785C35.3979 42.0369 35.2695 42.2542 35.0966 42.4369C34.9238 42.6147 34.704 42.753 34.4373 42.8518C34.1706 42.9506 33.8545 43 33.489 43Z" fill="#00DD83"/>
<path d="M28.0786 38.0289L29.1825 37.8511V38.9994H30.5086V39.918H29.1825V41.2886C29.1825 41.5207 29.222 41.7059 29.301 41.8442C29.385 41.9825 29.5504 42.0517 29.7974 42.0517C29.9159 42.0517 30.0369 42.0418 30.1604 42.022C30.2888 41.9973 30.4049 41.9652 30.5086 41.9257L30.6642 42.7851C30.5308 42.8394 30.3826 42.8864 30.2197 42.9259C30.0567 42.9654 29.8566 42.9851 29.6196 42.9851C29.3183 42.9851 29.0689 42.9456 28.8713 42.8666C28.6738 42.7826 28.5157 42.669 28.3972 42.5258C28.2786 42.3776 28.1947 42.1998 28.1453 41.9924C28.1008 41.785 28.0786 41.5553 28.0786 41.3034V38.0289Z" fill="#303030"/>
<path d="M25.5615 40.1847L26.332 38.9994H27.4729L26.1393 40.8737C26.4357 41.2442 26.7049 41.6047 26.9469 41.9554C27.1889 42.306 27.3815 42.6197 27.5247 42.8962H26.3394C26.2999 42.8222 26.2505 42.7308 26.1912 42.6221C26.1319 42.5085 26.0653 42.3925 25.9912 42.2739C25.9171 42.1505 25.8381 42.0295 25.7541 41.9109C25.6751 41.7874 25.5961 41.6763 25.517 41.5775C25.4429 41.6714 25.3664 41.7751 25.2874 41.8887C25.2133 42.0023 25.1417 42.1184 25.0725 42.2369C25.0034 42.3505 24.9342 42.4641 24.8651 42.5777C24.8009 42.6913 24.7441 42.7975 24.6947 42.8962H23.5686C23.6279 42.7728 23.7094 42.6271 23.8131 42.4591C23.9168 42.2912 24.0279 42.1184 24.1465 41.9405C24.2699 41.7578 24.3984 41.5775 24.5317 41.3997C24.6651 41.217 24.7959 41.0466 24.9244 40.8885C24.7021 40.5774 24.4798 40.2638 24.2576 39.9477C24.0353 39.6266 23.8156 39.3105 23.5982 38.9994H24.791L25.5615 40.1847Z" fill="#303030"/>
<path d="M22.977 42.7629C22.7893 42.8172 22.5473 42.8666 22.2509 42.9111C21.9546 42.9604 21.6434 42.9851 21.3175 42.9851C20.9866 42.9851 20.71 42.9407 20.4877 42.8518C20.2704 42.7629 20.0975 42.6394 19.9691 42.4814C19.8407 42.3184 19.7493 42.1258 19.695 41.9035C19.6407 41.6813 19.6135 41.4368 19.6135 41.1701V38.9994H20.7174V41.0367C20.7174 41.3923 20.7643 41.6492 20.8581 41.8072C20.952 41.9652 21.1273 42.0443 21.3841 42.0443C21.4632 42.0443 21.5471 42.0418 21.636 42.0369C21.7249 42.027 21.804 42.0171 21.8731 42.0072V38.9994H22.977V42.7629Z" fill="#303030"/>
<path d="M17.5699 42.8963C17.239 42.3085 16.8809 41.7282 16.4957 41.1553C16.1105 40.5824 15.7005 40.0415 15.2659 39.5328V42.8963H14.125V37.7622H15.0659C15.2289 37.9252 15.4091 38.1252 15.6067 38.3623C15.8043 38.5994 16.0043 38.8537 16.2068 39.1254C16.4142 39.3921 16.6192 39.6711 16.8217 39.9625C17.0242 40.249 17.2143 40.5256 17.3921 40.7923V37.7622H18.5404V42.8963H17.5699Z" fill="#303030"/>
</svg>
