<svg width="52" height="52" viewBox="0 0 52 52" fill="none" xmlns="http://www.w3.org/2000/svg">
<rect x="1" y="1" width="50" height="50" rx="11" stroke="#303030" stroke-width="2"/>
<path d="M7.81475 12.6579L7.81471 12.6578C7.80136 12.6344 7.80183 12.6225 7.80222 12.6168C7.80289 12.6072 7.80697 12.5921 7.81824 12.5761C7.82952 12.5602 7.84234 12.5513 7.85124 12.5474C7.85641 12.5451 7.86752 12.5407 7.89397 12.5454C7.894 12.5454 7.89404 12.5454 7.89408 12.5454L25.8603 15.7563C25.861 15.7564 25.8617 15.7565 25.8624 15.7567C26.0832 15.7967 26.3095 15.7966 26.5302 15.7563C26.5303 15.7563 26.5304 15.7563 26.5305 15.7563L44.1238 12.5498C44.1499 12.5451 44.161 12.5494 44.1663 12.5517C44.1753 12.5555 44.1882 12.5644 44.1996 12.5803C44.211 12.5962 44.2151 12.6111 44.2158 12.6206C44.2163 12.6261 44.2168 12.6377 44.204 12.6607L26.2535 44.7598C26.2534 44.7599 26.2534 44.76 26.2534 44.7601C26.2426 44.7792 26.2332 44.7858 26.2269 44.7893C26.2181 44.7943 26.2045 44.7987 26.1874 44.7988C26.1703 44.7989 26.1567 44.7946 26.1479 44.7897C26.1417 44.7863 26.1324 44.7799 26.1216 44.7609L7.81475 12.6579Z" stroke="url(#paint0_linear_665_3394)" stroke-width="1.8"/>
<path d="M34.0931 8.45968L21.7846 10.8712L21.0182 23.8044L24.1802 23.0738L24.1813 23.0735C24.4078 23.0215 24.6438 23.0271 24.8676 23.09C25.0914 23.1528 25.2958 23.2709 25.4621 23.4333C25.6283 23.5957 25.7512 23.7972 25.8193 24.0194C25.8874 24.2415 25.8987 24.477 25.8522 24.7045C25.8521 24.7047 25.8521 24.7049 25.852 24.7051L24.8917 29.407L26.5135 28.9137L26.5139 28.9135C27.5227 28.6072 28.4884 29.493 28.2773 30.5219L28.2771 30.5231L27.138 36.0344L36.3775 17.5954L33.3923 18.1716C33.3921 18.1717 33.3919 18.1717 33.3918 18.1717L33.3913 18.1718L34.0931 8.45968ZM34.0931 8.45968L31.7963 16.4225L34.0931 8.45968ZM34.5813 7.4469L34.5813 7.44704L34.5813 7.4469Z" stroke="url(#paint1_linear_665_3394)" stroke-width="1.8"/>
<defs>
<linearGradient id="paint0_linear_665_3394" x1="6.58549" y1="10.5124" x2="28.9273" y2="40.8543" gradientUnits="userSpaceOnUse">
<stop stop-color="#41D1FF"/>
<stop offset="1" stop-color="#BD34FE"/>
</linearGradient>
<linearGradient id="paint1_linear_665_3394" x1="24.9907" y1="8.15315" x2="29.0322" y2="35.8776" gradientUnits="userSpaceOnUse">
<stop stop-color="#FFEA83"/>
<stop offset="0.083" stop-color="#FFDD35"/>
<stop offset="1" stop-color="#FFA800"/>
</linearGradient>
</defs>
</svg>
