<svg width="52" height="52" viewBox="0 0 52 52" fill="none" xmlns="http://www.w3.org/2000/svg">
<rect width="52" height="52" rx="12" fill="#2E2E2E"/>
<g clip-path="url(#clip0_300_150)">
<path d="M21.3334 44C24.4614 44 27.0001 41.4613 27.0001 38.3333V32.6666H21.3334C18.2054 32.6666 15.6666 35.2053 15.6666 38.3333C15.6666 41.4613 18.2054 44 21.3334 44Z" fill="#0ACF83"/>
<path d="M15.6666 27C15.6666 23.872 18.2054 21.3333 21.3334 21.3333H27.0001V32.6665H21.3334C18.2054 32.6667 15.6666 30.128 15.6666 27Z" fill="#A259FF"/>
<path d="M15.6666 15.6667C15.6666 12.5387 18.2054 10 21.3334 10H27.0001V21.3333H21.3334C18.2054 21.3333 15.6666 18.7947 15.6666 15.6667Z" fill="#F24E1E"/>
<path d="M26.9999 10H32.6666C35.7947 10 38.3334 12.5387 38.3334 15.6667C38.3334 18.7947 35.7947 21.3333 32.6666 21.3333H26.9999V10Z" fill="#FF7262"/>
<path d="M38.3334 27C38.3334 30.128 35.7947 32.6667 32.6666 32.6667C29.5386 32.6667 26.9999 30.128 26.9999 27C26.9999 23.872 29.5386 21.3333 32.6666 21.3333C35.7947 21.3333 38.3334 23.872 38.3334 27Z" fill="#1ABCFE"/>
</g>
<defs>
<clipPath id="clip0_300_150">
<rect width="34" height="34" fill="white" transform="translate(10 10)"/>
</clipPath>
</defs>
</svg>
