<svg width="49" height="48" viewBox="0 0 49 48" fill="none" xmlns="http://www.w3.org/2000/svg">
<g clip-path="url(#clip0_33_62)">
<path d="M16.3651 48C20.7811 48 24.3652 44.4159 24.3652 39.9999V31.9999H16.3651C11.9491 31.9999 8.36499 35.5839 8.36499 39.9999C8.36499 44.4159 11.9491 48 16.3651 48Z" fill="#0ACF83"/>
<path d="M8.36499 23.9999C8.36499 19.5839 11.9491 15.9999 16.3651 15.9999H24.3652V31.9998H16.3651C11.9491 32 8.36499 28.4159 8.36499 23.9999Z" fill="#A259FF"/>
<path d="M8.36499 8.00006C8.36499 3.58406 11.9491 0 16.3651 0H24.3652V15.9999H16.3651C11.9491 15.9999 8.36499 12.4161 8.36499 8.00006Z" fill="#F24E1E"/>
<path d="M24.3647 0H32.3649C36.7809 0 40.365 3.58406 40.365 8.00006C40.365 12.4161 36.7809 15.9999 32.3649 15.9999H24.3647V0Z" fill="#FF7262"/>
<path d="M40.365 23.9999C40.365 28.4159 36.7809 32 32.3649 32C27.9488 32 24.3647 28.4159 24.3647 23.9999C24.3647 19.5839 27.9488 15.9999 32.3649 15.9999C36.7809 15.9999 40.365 19.5839 40.365 23.9999Z" fill="#1ABCFE"/>
</g>
<defs>
<clipPath id="clip0_33_62">
<rect width="48" height="48" fill="white" transform="translate(0.36499)"/>
</clipPath>
</defs>
</svg>
