<svg width="1613" height="287" viewBox="0 0 1613 287" fill="none" xmlns="http://www.w3.org/2000/svg">
<mask id="path-1-outside-1_5_16" maskUnits="userSpaceOnUse" x="-1" y="-1" width="1615" height="289" fill="black">
<rect fill="white" x="-1" y="-1" width="1615" height="289"/>
<path d="M1.6 283C0.533335 283 1.13249e-06 282.333 1.13249e-06 281L0.4 6.19999C0.4 5.13332 0.933334 4.59998 2 4.59998H130.4C131.467 4.59998 132 5.26665 132 6.59998V51.4C132 52.4666 131.467 53 130.4 53H48.4V115.4H130.4C131.467 115.4 132 115.933 132 117L132.4 162.2C132.4 163.267 131.867 163.8 130.8 163.8H48.4V233.8H130.8C131.867 233.8 132.4 234.467 132.4 235.8V281.4C132.4 282.467 131.867 283 130.8 283H1.6ZM250.919 287C236.519 287 223.452 283.4 211.719 276.2C199.985 269 190.519 259.4 183.319 247.4C176.385 235.133 172.919 221.533 172.919 206.6V79.8C172.919 65.4 176.385 52.2 183.319 40.2C190.519 27.9333 199.985 18.2 211.719 11C223.719 3.79999 236.785 0.199993 250.919 0.199993C265.585 0.199993 278.785 3.79999 290.519 11C302.519 17.9333 311.985 27.4 318.919 39.4C325.852 51.4 329.319 64.8667 329.319 79.8V98.2C329.319 99.2667 328.652 99.8 327.319 99.8H282.519C281.452 99.8 280.919 99.2667 280.919 98.2V83C280.919 72.8667 277.985 64.4667 272.119 57.8C266.519 51.1333 259.452 47.8 250.919 47.8C243.185 47.8 236.252 51 230.119 57.4C224.252 63.8 221.319 71.2667 221.319 79.8V206.6C221.319 215.4 224.252 223 230.119 229.4C235.985 235.533 242.919 238.6 250.919 238.6C259.452 238.6 266.519 235.533 272.119 229.4C277.985 223.267 280.919 215.667 280.919 206.6V187H252.919C251.585 187 250.919 186.333 250.919 185V140.2C250.919 138.867 251.585 138.2 252.919 138.2H327.719C328.785 138.2 329.319 138.867 329.319 140.2V206.6C329.319 221.533 325.719 235.133 318.519 247.4C311.585 259.4 302.252 269 290.519 276.2C278.785 283.4 265.585 287 250.919 287ZM359.025 281L408.625 6.19999C408.892 5.13332 409.558 4.59998 410.625 4.59998H468.625C469.692 4.59998 470.358 5.13332 470.625 6.19999L518.225 281C518.492 282.333 517.958 283 516.625 283H472.225C471.158 283 470.492 282.333 470.225 281L465.825 251.8H411.425L407.025 281C406.758 282.333 406.092 283 405.025 283H360.625C359.558 283 359.025 282.333 359.025 281ZM419.425 209H457.825L441.425 96.6L439.025 81.8L437.425 96.6L419.425 209ZM560.928 283C559.861 283 559.328 282.333 559.328 281L560.128 6.19999C560.128 5.13332 560.661 4.59998 561.728 4.59998H610.528C611.595 4.59998 612.528 5.13332 613.328 6.19999L649.728 59L686.128 6.19999C686.928 5.13332 687.861 4.59998 688.928 4.59998H738.128C739.195 4.59998 739.728 5.13332 739.728 6.19999L740.528 281C740.528 282.333 739.995 283 738.928 283H693.728C692.661 283 692.128 282.333 692.128 281L691.728 77L649.728 137.8L608.128 77L607.728 281C607.728 282.333 607.195 283 606.128 283H560.928ZM791.772 283C790.705 283 790.172 282.333 790.172 281L790.572 6.19999C790.572 5.13332 791.105 4.59998 792.172 4.59998H920.572C921.639 4.59998 922.172 5.26665 922.172 6.59998V51.4C922.172 52.4666 921.639 53 920.572 53H838.572V115.4H920.572C921.639 115.4 922.172 115.933 922.172 117L922.572 162.2C922.572 163.267 922.039 163.8 920.972 163.8H838.572V233.8H920.972C922.039 233.8 922.572 234.467 922.572 235.8V281.4C922.572 282.467 922.039 283 920.972 283H791.772ZM976.141 283C974.807 283 974.141 282.333 974.141 281L974.941 6.19999C974.941 5.13332 975.474 4.59998 976.541 4.59998L1051.34 4.19999C1066.01 3.93333 1079.34 7.4 1091.34 14.6C1103.61 21.8 1113.34 31.5333 1120.54 43.8C1127.74 55.8 1131.34 69.1333 1131.34 83.8V198.6C1131.34 214.067 1127.61 228.2 1120.14 241C1112.67 253.533 1102.67 263.533 1090.14 271C1077.61 278.467 1063.47 282.333 1047.74 282.6L976.141 283ZM1022.94 233.8H1047.74C1057.61 233.8 1065.87 230.333 1072.54 223.4C1079.47 216.467 1082.94 208.2 1082.94 198.6V83.4C1082.94 74.8667 1079.74 67.5333 1073.34 61.4C1067.21 55 1059.87 51.9333 1051.34 52.2L1023.34 52.6L1022.94 233.8ZM1180.81 283C1179.48 283 1178.81 282.333 1178.81 281L1179.21 6.19999C1179.21 5.13332 1179.75 4.59998 1180.81 4.59998H1225.61C1226.68 4.59998 1227.21 5.13332 1227.21 6.19999L1227.61 281C1227.61 282.333 1227.08 283 1226.01 283H1180.81ZM1280.4 283C1279.33 283 1278.8 282.333 1278.8 281L1279.2 6.19999C1279.2 5.13332 1279.73 4.59998 1280.8 4.59998H1409.2C1410.26 4.59998 1410.8 5.26665 1410.8 6.59998V51.4C1410.8 52.4666 1410.26 53 1409.2 53H1327.2V115.4H1409.2C1410.26 115.4 1410.8 115.933 1410.8 117L1411.2 162.2C1411.2 163.267 1410.66 163.8 1409.6 163.8H1327.2V233.8H1409.6C1410.66 233.8 1411.2 234.467 1411.2 235.8V281.4C1411.2 282.467 1410.66 283 1409.6 283H1280.4ZM1507.57 283C1506.5 283 1505.83 282.333 1505.57 281L1450.37 6.19999C1450.1 5.13332 1450.63 4.59998 1451.97 4.59998H1497.17C1498.23 4.59998 1498.9 5.13332 1499.17 6.19999L1531.97 189.4L1563.97 6.19999C1564.23 5.13332 1564.9 4.59998 1565.97 4.59998H1610.77C1612.1 4.59998 1612.63 5.13332 1612.37 6.19999L1557.97 281C1557.7 282.333 1557.03 283 1555.97 283H1507.57Z"/>
</mask>
<path d="M1.13249e-06 281L-0.999999 280.999V281H1.13249e-06ZM0.4 6.19999L1.4 6.20144V6.19999H0.4ZM48.4 53V52H47.4V53H48.4ZM48.4 115.4H47.4V116.4H48.4V115.4ZM132 117H131L131 117.009L132 117ZM132.4 162.2H133.4L133.4 162.191L132.4 162.2ZM48.4 163.8V162.8H47.4V163.8H48.4ZM48.4 233.8H47.4V234.8H48.4V233.8ZM1.6 282C1.28737 282 1.21131 281.913 1.18087 281.875C1.11634 281.795 1 281.56 1 281H-0.999999C-0.999999 281.774 -0.849669 282.539 -0.380868 283.125C0.122022 283.753 0.845963 284 1.6 284V282ZM1 281.001L1.4 6.20144L-0.599998 6.19853L-0.999998 280.999L1 281.001ZM1.4 6.19999C1.4 5.8208 1.49412 5.72008 1.50711 5.70709C1.52009 5.6941 1.62081 5.59998 2 5.59998V3.59998C1.31252 3.59998 0.613239 3.77253 0.0928931 4.29288C-0.427453 4.81323 -0.6 5.51251 -0.6 6.19999H1.4ZM2 5.59998H130.4V3.59998H2V5.59998ZM130.4 5.59998C130.713 5.59998 130.789 5.68662 130.819 5.72468C130.884 5.80534 131 6.04016 131 6.59998H133C133 5.82647 132.85 5.06129 132.381 4.47529C131.878 3.84668 131.154 3.59998 130.4 3.59998V5.59998ZM131 6.59998V51.4H133V6.59998H131ZM131 51.4C131 51.7792 130.906 51.8799 130.893 51.8929C130.88 51.9059 130.779 52 130.4 52V54C131.087 54 131.787 53.8274 132.307 53.3071C132.827 52.7867 133 52.0875 133 51.4H131ZM130.4 52H48.4V54H130.4V52ZM47.4 53V115.4H49.4V53H47.4ZM48.4 116.4H130.4V114.4H48.4V116.4ZM130.4 116.4C130.779 116.4 130.88 116.494 130.893 116.507C130.906 116.52 131 116.621 131 117H133C133 116.313 132.827 115.613 132.307 115.093C131.787 114.573 131.087 114.4 130.4 114.4V116.4ZM131 117.009L131.4 162.209L133.4 162.191L133 116.991L131 117.009ZM131.4 162.2C131.4 162.579 131.306 162.68 131.293 162.693C131.28 162.706 131.179 162.8 130.8 162.8V164.8C131.487 164.8 132.187 164.627 132.707 164.107C133.227 163.587 133.4 162.887 133.4 162.2H131.4ZM130.8 162.8H48.4V164.8H130.8V162.8ZM47.4 163.8V233.8H49.4V163.8H47.4ZM48.4 234.8H130.8V232.8H48.4V234.8ZM130.8 234.8C131.113 234.8 131.189 234.887 131.219 234.925C131.284 235.005 131.4 235.24 131.4 235.8H133.4C133.4 235.026 133.25 234.261 132.781 233.675C132.278 233.047 131.554 232.8 130.8 232.8V234.8ZM131.4 235.8V281.4H133.4V235.8H131.4ZM131.4 281.4C131.4 281.779 131.306 281.88 131.293 281.893C131.28 281.906 131.179 282 130.8 282V284C131.487 284 132.187 283.827 132.707 283.307C133.227 282.787 133.4 282.087 133.4 281.4H131.4ZM130.8 282H1.6V284H130.8V282ZM211.719 276.2L211.196 277.052L211.196 277.052L211.719 276.2ZM183.319 247.4L182.448 247.892L182.455 247.903L182.461 247.914L183.319 247.4ZM183.319 40.2L182.456 39.6938L182.453 39.6997L183.319 40.2ZM211.719 11L211.204 10.1425L211.196 10.1477L211.719 11ZM290.519 11L289.996 11.8523L290.007 11.8592L290.018 11.8659L290.519 11ZM318.919 39.4L318.053 39.9003L318.053 39.9003L318.919 39.4ZM272.119 57.8L271.353 58.4432L271.36 58.452L271.368 58.4606L272.119 57.8ZM230.119 57.4L229.397 56.7081L229.389 56.7161L229.382 56.7243L230.119 57.4ZM230.119 229.4L229.382 230.076L229.389 230.084L229.396 230.091L230.119 229.4ZM272.119 229.4L271.396 228.709L271.388 228.717L271.38 228.726L272.119 229.4ZM280.919 187H281.919V186H280.919V187ZM318.519 247.4L317.656 246.894L317.653 246.9L318.519 247.4ZM290.519 276.2L291.042 277.052L290.519 276.2ZM250.919 286C236.694 286 223.81 282.447 212.242 275.348L211.196 277.052C223.094 284.353 236.343 288 250.919 288V286ZM212.242 275.348C200.648 268.233 191.295 258.75 184.176 246.886L182.461 247.914C189.743 260.05 199.323 269.767 211.196 277.052L212.242 275.348ZM184.189 246.908C177.346 234.8 173.919 221.372 173.919 206.6H171.919C171.919 221.695 175.425 235.466 182.448 247.892L184.189 246.908ZM173.919 206.6V79.8H171.919V206.6H173.919ZM173.919 79.8C173.919 65.5685 177.343 52.5421 184.185 40.7003L182.453 39.6997C175.428 51.8579 171.919 65.2315 171.919 79.8H173.919ZM184.181 40.7062C191.301 28.5761 200.653 18.9636 212.242 11.8523L211.196 10.1477C199.318 17.4364 189.737 27.2905 182.456 39.6938L184.181 40.7062ZM212.233 11.8575C224.076 4.75171 236.965 1.19999 250.919 1.19999V-0.800007C236.606 -0.800007 223.361 2.84828 211.204 10.1425L212.233 11.8575ZM250.919 1.19999C265.413 1.19999 278.43 4.75526 289.996 11.8523L291.042 10.1477C279.141 2.84473 265.757 -0.800007 250.919 -0.800007V1.19999ZM290.018 11.8659C301.867 18.7115 311.207 28.0521 318.053 39.9003L319.785 38.8997C312.764 26.7479 303.171 17.1552 291.019 10.1341L290.018 11.8659ZM318.053 39.9003C324.892 51.7365 328.319 65.0282 328.319 79.8H330.319C330.319 64.7051 326.813 51.0635 319.785 38.8997L318.053 39.9003ZM328.319 79.8V98.2H330.319V79.8H328.319ZM328.319 98.2C328.319 98.5126 328.232 98.5887 328.194 98.6191C328.113 98.6836 327.879 98.8 327.319 98.8V100.8C328.092 100.8 328.857 100.65 329.443 100.181C330.072 99.678 330.319 98.954 330.319 98.2H328.319ZM327.319 98.8H282.519V100.8H327.319V98.8ZM282.519 98.8C282.14 98.8 282.039 98.7059 282.026 98.6929C282.013 98.6799 281.919 98.5792 281.919 98.2H279.919C279.919 98.8875 280.091 99.5868 280.612 100.107C281.132 100.627 281.831 100.8 282.519 100.8V98.8ZM281.919 98.2V83H279.919V98.2H281.919ZM281.919 83C281.919 72.66 278.919 64.0143 272.869 57.1394L271.368 58.4606C277.051 64.919 279.919 73.0733 279.919 83H281.919ZM272.884 57.1568C267.099 50.2692 259.754 46.8 250.919 46.8V48.8C259.15 48.8 265.939 51.9974 271.353 58.4432L272.884 57.1568ZM250.919 46.8C242.872 46.8 235.689 50.1427 229.397 56.7081L230.841 58.0919C236.816 51.8573 243.499 48.8 250.919 48.8V46.8ZM229.382 56.7243C223.349 63.3051 220.319 71.0117 220.319 79.8H222.319C222.319 71.5216 225.155 64.2948 230.856 58.0757L229.382 56.7243ZM220.319 79.8V206.6H222.319V79.8H220.319ZM220.319 206.6C220.319 215.646 223.343 223.489 229.382 230.076L230.856 228.724C225.161 222.511 222.319 215.154 222.319 206.6H220.319ZM229.396 230.091C235.439 236.408 242.628 239.6 250.919 239.6V237.6C243.21 237.6 236.532 234.658 230.841 228.709L229.396 230.091ZM250.919 239.6C259.724 239.6 267.062 236.421 272.857 230.074L271.38 228.726C265.976 234.645 259.18 237.6 250.919 237.6V239.6ZM272.841 230.091C278.899 223.758 281.919 215.905 281.919 206.6H279.919C279.919 215.428 277.072 222.775 271.396 228.709L272.841 230.091ZM281.919 206.6V187H279.919V206.6H281.919ZM280.919 186H252.919V188H280.919V186ZM252.919 186C252.406 186 252.206 185.873 252.126 185.793C252.046 185.713 251.919 185.513 251.919 185H249.919C249.919 185.821 250.125 186.62 250.712 187.207C251.299 187.794 252.098 188 252.919 188V186ZM251.919 185V140.2H249.919V185H251.919ZM251.919 140.2C251.919 139.687 252.046 139.487 252.126 139.407C252.206 139.327 252.406 139.2 252.919 139.2V137.2C252.098 137.2 251.299 137.406 250.712 137.993C250.125 138.58 249.919 139.379 249.919 140.2H251.919ZM252.919 139.2H327.719V137.2H252.919V139.2ZM327.719 139.2C328.031 139.2 328.107 139.287 328.138 139.325C328.202 139.405 328.319 139.64 328.319 140.2H330.319C330.319 139.426 330.168 138.661 329.7 138.075C329.197 137.447 328.473 137.2 327.719 137.2V139.2ZM328.319 140.2V206.6H330.319V140.2H328.319ZM328.319 206.6C328.319 221.365 324.762 234.788 317.656 246.894L319.381 247.906C326.676 235.478 330.319 221.702 330.319 206.6H328.319ZM317.653 246.9C310.802 258.757 301.586 268.235 289.996 275.348L291.042 277.052C302.918 269.765 312.369 260.043 319.385 247.9L317.653 246.9ZM289.996 275.348C278.43 282.445 265.413 286 250.919 286V288C265.757 288 279.141 284.355 291.042 277.052L289.996 275.348ZM359.025 281L358.041 280.822L358.025 280.91V281H359.025ZM408.625 6.19999L407.655 5.95745L407.647 5.98968L407.641 6.02236L408.625 6.19999ZM470.625 6.19999L471.61 6.02931L471.604 5.9931L471.595 5.95745L470.625 6.19999ZM518.225 281L517.24 281.171L517.242 281.183L517.244 281.196L518.225 281ZM470.225 281L469.236 281.149L469.24 281.173L469.244 281.196L470.225 281ZM465.825 251.8L466.814 251.651L466.686 250.8H465.825V251.8ZM411.425 251.8V250.8H410.564L410.436 251.651L411.425 251.8ZM407.025 281L408.006 281.196L408.01 281.173L408.014 281.149L407.025 281ZM419.425 209L418.438 208.842L418.252 210H419.425V209ZM457.825 209V210H458.982L458.815 208.856L457.825 209ZM441.425 96.6L442.415 96.4556L442.413 96.4478L442.412 96.4399L441.425 96.6ZM439.025 81.8L440.012 81.6399L438.031 81.6925L439.025 81.8ZM437.425 96.6L438.412 96.7581L438.416 96.7329L438.419 96.7075L437.425 96.6ZM360.009 281.178L409.609 6.37761L407.641 6.02236L358.041 280.822L360.009 281.178ZM409.595 6.44252C409.691 6.06004 409.831 5.87578 409.95 5.78085C410.065 5.68844 410.261 5.59998 410.625 5.59998V3.59998C409.923 3.59998 409.251 3.7782 408.7 4.21912C408.152 4.65752 407.826 5.27326 407.655 5.95745L409.595 6.44252ZM410.625 5.59998H468.625V3.59998H410.625V5.59998ZM468.625 5.59998C468.989 5.59998 469.185 5.68844 469.3 5.78085C469.419 5.87578 469.559 6.06005 469.655 6.44253L471.595 5.95745C471.424 5.27326 471.098 4.65752 470.55 4.21912C469.999 3.7782 469.327 3.59998 468.625 3.59998V5.59998ZM469.64 6.37066L517.24 281.171L519.21 280.829L471.61 6.02931L469.64 6.37066ZM517.244 281.196C517.296 281.456 517.298 281.633 517.284 281.743C517.27 281.846 517.245 281.875 517.244 281.875C517.242 281.878 517.237 281.884 517.224 281.893C517.211 281.902 517.184 281.917 517.139 281.933C517.043 281.967 516.881 282 516.625 282V284C517.423 284 518.263 283.803 518.806 283.125C519.343 282.453 519.363 281.59 519.206 280.804L517.244 281.196ZM516.625 282H472.225V284H516.625V282ZM472.225 282C471.919 282 471.753 281.913 471.632 281.793C471.487 281.648 471.317 281.359 471.206 280.804L469.244 281.196C469.4 281.975 469.696 282.685 470.218 283.207C470.764 283.753 471.464 284 472.225 284V282ZM471.214 280.851L466.814 251.651L464.836 251.949L469.236 281.149L471.214 280.851ZM465.825 250.8H411.425V252.8H465.825V250.8ZM410.436 251.651L406.036 280.851L408.014 281.149L412.414 251.949L410.436 251.651ZM406.044 280.804C405.933 281.359 405.763 281.648 405.618 281.793C405.497 281.913 405.331 282 405.025 282V284C405.786 284 406.486 283.753 407.032 283.207C407.554 282.685 407.85 281.975 408.006 281.196L406.044 280.804ZM405.025 282H360.625V284H405.025V282ZM360.625 282C360.312 282 360.236 281.913 360.206 281.875C360.141 281.795 360.025 281.56 360.025 281H358.025C358.025 281.774 358.175 282.539 358.644 283.125C359.147 283.753 359.871 284 360.625 284V282ZM419.425 210H457.825V208H419.425V210ZM458.815 208.856L442.415 96.4556L440.435 96.7444L456.835 209.144L458.815 208.856ZM442.412 96.4399L440.012 81.6399L438.038 81.9601L440.438 96.7601L442.412 96.4399ZM438.031 81.6925L436.431 96.4925L438.419 96.7075L440.019 81.9075L438.031 81.6925ZM436.438 96.4419L418.438 208.842L420.412 209.158L438.412 96.7581L436.438 96.4419ZM559.328 281L558.328 280.997V281H559.328ZM560.128 6.19999L561.128 6.2029V6.19999H560.128ZM613.328 6.19999L614.151 5.6324L614.14 5.61596L614.128 5.59999L613.328 6.19999ZM649.728 59L648.905 59.5676L649.728 60.7618L650.551 59.5676L649.728 59ZM686.128 6.19999L685.328 5.59999L685.316 5.61596L685.305 5.6324L686.128 6.19999ZM739.728 6.19999L738.728 6.19999L738.728 6.2029L739.728 6.19999ZM740.528 281L741.528 281L741.528 280.997L740.528 281ZM692.128 281L693.128 281L693.128 280.998L692.128 281ZM691.728 77L692.728 76.998L692.722 73.802L690.905 76.4316L691.728 77ZM649.728 137.8L648.903 138.365L649.724 139.565L650.551 138.368L649.728 137.8ZM608.128 77L608.953 76.4353L607.134 73.7768L607.128 76.998L608.128 77ZM607.728 281L606.728 280.998V281H607.728ZM560.928 282C560.615 282 560.539 281.913 560.509 281.875C560.444 281.795 560.328 281.56 560.328 281H558.328C558.328 281.774 558.478 282.539 558.947 283.125C559.45 283.753 560.174 284 560.928 284V282ZM560.328 281.003L561.128 6.2029L559.128 6.19708L558.328 280.997L560.328 281.003ZM561.128 6.19999C561.128 5.8208 561.222 5.72008 561.235 5.70709C561.248 5.6941 561.349 5.59998 561.728 5.59998V3.59998C561.041 3.59998 560.341 3.77253 559.821 4.29288C559.301 4.81323 559.128 5.51251 559.128 6.19999H561.128ZM561.728 5.59998H610.528V3.59998H561.728V5.59998ZM610.528 5.59998C611.202 5.59998 611.865 5.9153 612.528 6.79999L614.128 5.59999C613.192 4.35134 611.988 3.59998 610.528 3.59998V5.59998ZM612.505 6.76757L648.905 59.5676L650.551 58.4324L614.151 5.6324L612.505 6.76757ZM650.551 59.5676L686.951 6.76757L685.305 5.6324L648.905 58.4324L650.551 59.5676ZM686.928 6.79999C687.592 5.9153 688.254 5.59998 688.928 5.59998V3.59998C687.469 3.59998 686.265 4.35134 685.328 5.59999L686.928 6.79999ZM688.928 5.59998H738.128V3.59998H688.928V5.59998ZM738.128 5.59998C738.507 5.59998 738.608 5.6941 738.621 5.70709C738.634 5.72008 738.728 5.8208 738.728 6.19999H740.728C740.728 5.51251 740.556 4.81323 740.035 4.29288C739.515 3.77253 738.816 3.59998 738.128 3.59998V5.59998ZM738.728 6.2029L739.528 281.003L741.528 280.997L740.728 6.19708L738.728 6.2029ZM739.528 281C739.528 281.56 739.412 281.795 739.347 281.875C739.317 281.913 739.241 282 738.928 282V284C739.682 284 740.406 283.753 740.909 283.125C741.378 282.539 741.528 281.774 741.528 281H739.528ZM738.928 282H693.728V284H738.928V282ZM693.728 282C693.416 282 693.339 281.913 693.309 281.875C693.244 281.795 693.128 281.56 693.128 281H691.128C691.128 281.774 691.278 282.539 691.747 283.125C692.25 283.753 692.974 284 693.728 284V282ZM693.128 280.998L692.728 76.998L690.728 77.0019L691.128 281.002L693.128 280.998ZM690.905 76.4316L648.905 137.232L650.551 138.368L692.551 77.5683L690.905 76.4316ZM650.553 137.235L608.953 76.4353L607.303 77.5647L648.903 138.365L650.553 137.235ZM607.128 76.998L606.728 280.998L608.728 281.002L609.128 77.0019L607.128 76.998ZM606.728 281C606.728 281.56 606.612 281.795 606.547 281.875C606.517 281.913 606.441 282 606.128 282V284C606.882 284 607.606 283.753 608.109 283.125C608.578 282.539 608.728 281.774 608.728 281H606.728ZM606.128 282H560.928V284H606.128V282ZM790.172 281L789.172 280.999V281H790.172ZM790.572 6.19999L791.572 6.20144V6.19999H790.572ZM838.572 53V52H837.572V53H838.572ZM838.572 115.4H837.572V116.4H838.572V115.4ZM922.172 117H921.172L921.172 117.009L922.172 117ZM922.572 162.2H923.572L923.572 162.191L922.572 162.2ZM838.572 163.8V162.8H837.572V163.8H838.572ZM838.572 233.8H837.572V234.8H838.572V233.8ZM791.772 282C791.459 282 791.383 281.913 791.353 281.875C791.288 281.795 791.172 281.56 791.172 281H789.172C789.172 281.774 789.322 282.539 789.791 283.125C790.294 283.753 791.018 284 791.772 284V282ZM791.172 281.001L791.572 6.20144L789.572 6.19853L789.172 280.999L791.172 281.001ZM791.572 6.19999C791.572 5.8208 791.666 5.72008 791.679 5.70709C791.692 5.6941 791.793 5.59998 792.172 5.59998V3.59998C791.484 3.59998 790.785 3.77253 790.265 4.29288C789.744 4.81323 789.572 5.51251 789.572 6.19999H791.572ZM792.172 5.59998H920.572V3.59998H792.172V5.59998ZM920.572 5.59998C920.885 5.59998 920.961 5.68662 920.991 5.72468C921.056 5.80534 921.172 6.04016 921.172 6.59998H923.172C923.172 5.82647 923.022 5.06129 922.553 4.47529C922.05 3.84668 921.326 3.59998 920.572 3.59998V5.59998ZM921.172 6.59998V51.4H923.172V6.59998H921.172ZM921.172 51.4C921.172 51.7792 921.078 51.8799 921.065 51.8929C921.052 51.9059 920.951 52 920.572 52V54C921.259 54 921.959 53.8274 922.479 53.3071C922.999 52.7867 923.172 52.0875 923.172 51.4H921.172ZM920.572 52H838.572V54H920.572V52ZM837.572 53V115.4H839.572V53H837.572ZM838.572 116.4H920.572V114.4H838.572V116.4ZM920.572 116.4C920.951 116.4 921.052 116.494 921.065 116.507C921.078 116.52 921.172 116.621 921.172 117H923.172C923.172 116.313 922.999 115.613 922.479 115.093C921.959 114.573 921.259 114.4 920.572 114.4V116.4ZM921.172 117.009L921.572 162.209L923.572 162.191L923.172 116.991L921.172 117.009ZM921.572 162.2C921.572 162.579 921.478 162.68 921.465 162.693C921.452 162.706 921.351 162.8 920.972 162.8V164.8C921.659 164.8 922.359 164.627 922.879 164.107C923.399 163.587 923.572 162.887 923.572 162.2H921.572ZM920.972 162.8H838.572V164.8H920.972V162.8ZM837.572 163.8V233.8H839.572V163.8H837.572ZM838.572 234.8H920.972V232.8H838.572V234.8ZM920.972 234.8C921.285 234.8 921.361 234.887 921.391 234.925C921.456 235.005 921.572 235.24 921.572 235.8H923.572C923.572 235.026 923.422 234.261 922.953 233.675C922.45 233.047 921.726 232.8 920.972 232.8V234.8ZM921.572 235.8V281.4H923.572V235.8H921.572ZM921.572 281.4C921.572 281.779 921.478 281.88 921.465 281.893C921.452 281.906 921.351 282 920.972 282V284C921.659 284 922.359 283.827 922.879 283.307C923.399 282.787 923.572 282.087 923.572 281.4H921.572ZM920.972 282H791.772V284H920.972V282ZM976.141 283V284L976.146 284L976.141 283ZM974.141 281L973.141 280.997V281H974.141ZM974.941 6.19999L975.941 6.2029V6.19999H974.941ZM976.541 4.59998V5.6L976.546 5.59997L976.541 4.59998ZM1051.34 4.19999L1051.35 5.20006L1051.36 5.19982L1051.34 4.19999ZM1091.34 14.6L1090.83 15.4575L1090.83 15.4624L1091.34 14.6ZM1120.54 43.8L1119.68 44.3062L1119.68 44.3145L1120.54 43.8ZM1120.14 241L1121 241.512L1121 241.504L1120.14 241ZM1090.14 271L1089.63 270.141L1090.14 271ZM1047.74 282.6L1047.75 283.6L1047.76 283.6L1047.74 282.6ZM1022.94 233.8L1021.94 233.798L1021.94 234.8H1022.94V233.8ZM1072.54 223.4L1071.83 222.693L1071.83 222.7L1071.82 222.707L1072.54 223.4ZM1073.34 61.4L1072.62 62.0919L1072.63 62.1073L1072.65 62.122L1073.34 61.4ZM1051.34 52.2L1051.35 53.1999L1051.36 53.1998L1051.37 53.1995L1051.34 52.2ZM1023.34 52.6L1023.33 51.6001L1022.34 51.6141L1022.34 52.5978L1023.34 52.6ZM976.141 282C975.628 282 975.427 281.873 975.348 281.793C975.268 281.713 975.141 281.513 975.141 281H973.141C973.141 281.821 973.347 282.62 973.934 283.207C974.521 283.794 975.32 284 976.141 284V282ZM975.141 281.003L975.941 6.2029L973.941 6.19708L973.141 280.997L975.141 281.003ZM975.941 6.19999C975.941 5.8208 976.035 5.72008 976.048 5.70709C976.061 5.6941 976.161 5.59998 976.541 5.59998V3.59998C975.853 3.59998 975.154 3.77253 974.634 4.29288C974.113 4.81323 973.941 5.51251 973.941 6.19999H975.941ZM976.546 5.59997L1051.35 5.19998L1051.34 3.2L976.535 3.6L976.546 5.59997ZM1051.36 5.19982C1065.85 4.9364 1078.99 8.35868 1090.83 15.4575L1091.86 13.7425C1079.69 6.44131 1066.17 2.93026 1051.32 3.20015L1051.36 5.19982ZM1090.83 15.4624C1102.95 22.576 1112.56 32.1867 1119.68 44.3062L1121.4 43.2938C1114.12 30.8799 1104.26 21.024 1091.85 13.7376L1090.83 15.4624ZM1119.68 44.3145C1126.79 56.1514 1130.34 69.3055 1130.34 83.8H1132.34C1132.34 68.9612 1128.7 55.4485 1121.4 43.2855L1119.68 44.3145ZM1130.34 83.8V198.6H1132.34V83.8H1130.34ZM1130.34 198.6C1130.34 213.898 1126.65 227.856 1119.28 240.496L1121 241.504C1128.56 228.544 1132.34 214.236 1132.34 198.6H1130.34ZM1119.28 240.488C1111.9 252.879 1102.02 262.759 1089.63 270.141L1090.65 271.859C1103.33 264.307 1113.45 254.188 1121 241.512L1119.28 240.488ZM1089.63 270.141C1077.26 277.511 1063.3 281.336 1047.72 281.6L1047.76 283.6C1063.65 283.33 1077.96 279.422 1090.65 271.859L1089.63 270.141ZM1047.74 281.6L976.135 282L976.146 284L1047.75 283.6L1047.74 281.6ZM1022.94 234.8H1047.74V232.8H1022.94V234.8ZM1047.74 234.8C1057.87 234.8 1066.4 231.228 1073.26 224.093L1071.82 222.707C1065.35 229.439 1057.34 232.8 1047.74 232.8V234.8ZM1073.25 224.107C1080.36 216.991 1083.94 208.472 1083.94 198.6H1081.94C1081.94 207.928 1078.58 215.943 1071.83 222.693L1073.25 224.107ZM1083.94 198.6V83.4H1081.94V198.6H1083.94ZM1083.94 83.4C1083.94 74.5824 1080.62 66.9917 1074.03 60.678L1072.65 62.122C1078.86 68.0749 1081.94 75.1509 1081.94 83.4H1083.94ZM1074.06 60.7081C1067.74 54.1123 1060.14 50.9246 1051.31 51.2005L1051.37 53.1995C1059.61 52.9421 1066.67 55.8877 1072.62 62.0919L1074.06 60.7081ZM1051.33 51.2001L1023.33 51.6001L1023.35 53.5999L1051.35 53.1999L1051.33 51.2001ZM1022.34 52.5978L1021.94 233.798L1023.94 233.802L1024.34 52.6022L1022.34 52.5978ZM1178.81 281L1177.81 280.999V281H1178.81ZM1179.21 6.19999L1180.21 6.20144V6.19999H1179.21ZM1227.21 6.19999H1226.21L1226.21 6.20144L1227.21 6.19999ZM1227.61 281H1228.61L1228.61 280.999L1227.61 281ZM1180.81 282C1180.3 282 1180.1 281.873 1180.02 281.793C1179.94 281.713 1179.81 281.513 1179.81 281H1177.81C1177.81 281.821 1178.02 282.62 1178.61 283.207C1179.19 283.794 1179.99 284 1180.81 284V282ZM1179.81 281.001L1180.21 6.20144L1178.21 6.19853L1177.81 280.999L1179.81 281.001ZM1180.21 6.19999C1180.21 5.8208 1180.31 5.72008 1180.32 5.70709C1180.33 5.6941 1180.43 5.59998 1180.81 5.59998V3.59998C1180.13 3.59998 1179.43 3.77253 1178.91 4.29288C1178.39 4.81323 1178.21 5.51251 1178.21 6.19999H1180.21ZM1180.81 5.59998H1225.61V3.59998H1180.81V5.59998ZM1225.61 5.59998C1225.99 5.59998 1226.09 5.6941 1226.11 5.70709C1226.12 5.72008 1226.21 5.8208 1226.21 6.19999H1228.21C1228.21 5.51251 1228.04 4.81323 1227.52 4.29288C1227 3.77253 1226.3 3.59998 1225.61 3.59998V5.59998ZM1226.21 6.20144L1226.61 281.001L1228.61 280.999L1228.21 6.19853L1226.21 6.20144ZM1226.61 281C1226.61 281.56 1226.5 281.795 1226.43 281.875C1226.4 281.913 1226.33 282 1226.01 282V284C1226.77 284 1227.49 283.753 1227.99 283.125C1228.46 282.539 1228.61 281.774 1228.61 281H1226.61ZM1226.01 282H1180.81V284H1226.01V282ZM1278.8 281L1277.8 280.999V281H1278.8ZM1279.2 6.19999L1280.2 6.20144V6.19999H1279.2ZM1327.2 53V52H1326.2V53H1327.2ZM1327.2 115.4H1326.2V116.4H1327.2V115.4ZM1410.8 117H1409.8L1409.8 117.009L1410.8 117ZM1411.2 162.2H1412.2L1412.2 162.191L1411.2 162.2ZM1327.2 163.8V162.8H1326.2V163.8H1327.2ZM1327.2 233.8H1326.2V234.8H1327.2V233.8ZM1280.4 282C1280.08 282 1280.01 281.913 1279.98 281.875C1279.91 281.795 1279.8 281.56 1279.8 281H1277.8C1277.8 281.774 1277.95 282.539 1278.42 283.125C1278.92 283.753 1279.64 284 1280.4 284V282ZM1279.8 281.001L1280.2 6.20144L1278.2 6.19853L1277.8 280.999L1279.8 281.001ZM1280.2 6.19999C1280.2 5.8208 1280.29 5.72008 1280.3 5.70709C1280.32 5.6941 1280.42 5.59998 1280.8 5.59998V3.59998C1280.11 3.59998 1279.41 3.77253 1278.89 4.29288C1278.37 4.81323 1278.2 5.51251 1278.2 6.19999H1280.2ZM1280.8 5.59998H1409.2V3.59998H1280.8V5.59998ZM1409.2 5.59998C1409.51 5.59998 1409.59 5.68662 1409.62 5.72468C1409.68 5.80534 1409.8 6.04016 1409.8 6.59998H1411.8C1411.8 5.82647 1411.65 5.06129 1411.18 4.47529C1410.67 3.84668 1409.95 3.59998 1409.2 3.59998V5.59998ZM1409.8 6.59998V51.4H1411.8V6.59998H1409.8ZM1409.8 51.4C1409.8 51.7792 1409.7 51.8799 1409.69 51.8929C1409.68 51.9059 1409.58 52 1409.2 52V54C1409.88 54 1410.58 53.8274 1411.1 53.3071C1411.62 52.7867 1411.8 52.0875 1411.8 51.4H1409.8ZM1409.2 52H1327.2V54H1409.2V52ZM1326.2 53V115.4H1328.2V53H1326.2ZM1327.2 116.4H1409.2V114.4H1327.2V116.4ZM1409.2 116.4C1409.58 116.4 1409.68 116.494 1409.69 116.507C1409.7 116.52 1409.8 116.621 1409.8 117H1411.8C1411.8 116.313 1411.62 115.613 1411.1 115.093C1410.58 114.573 1409.88 114.4 1409.2 114.4V116.4ZM1409.8 117.009L1410.2 162.209L1412.2 162.191L1411.8 116.991L1409.8 117.009ZM1410.2 162.2C1410.2 162.579 1410.1 162.68 1410.09 162.693C1410.08 162.706 1409.98 162.8 1409.6 162.8V164.8C1410.28 164.8 1410.98 164.627 1411.5 164.107C1412.02 163.587 1412.2 162.887 1412.2 162.2H1410.2ZM1409.6 162.8H1327.2V164.8H1409.6V162.8ZM1326.2 163.8V233.8H1328.2V163.8H1326.2ZM1327.2 234.8H1409.6V232.8H1327.2V234.8ZM1409.6 234.8C1409.91 234.8 1409.99 234.887 1410.02 234.925C1410.08 235.005 1410.2 235.24 1410.2 235.8H1412.2C1412.2 235.026 1412.05 234.261 1411.58 233.675C1411.07 233.047 1410.35 232.8 1409.6 232.8V234.8ZM1410.2 235.8V281.4H1412.2V235.8H1410.2ZM1410.2 281.4C1410.2 281.779 1410.1 281.88 1410.09 281.893C1410.08 281.906 1409.98 282 1409.6 282V284C1410.28 284 1410.98 283.827 1411.5 283.307C1412.02 282.787 1412.2 282.087 1412.2 281.4H1410.2ZM1409.6 282H1280.4V284H1409.6V282ZM1505.57 281L1506.55 280.804L1506.55 280.803L1505.57 281ZM1450.37 6.19999L1451.35 6.00305L1451.34 5.98013L1451.34 5.95745L1450.37 6.19999ZM1499.17 6.19999L1500.15 6.02375L1500.14 5.99036L1500.14 5.95745L1499.17 6.19999ZM1531.97 189.4L1530.98 189.576L1532.95 189.572L1531.97 189.4ZM1563.97 6.19999L1563 5.95746L1562.99 5.99242L1562.98 6.02792L1563.97 6.19999ZM1612.37 6.19999L1611.4 5.95746L1611.39 5.98149L1611.38 6.00579L1612.37 6.19999ZM1557.97 281L1558.95 281.196L1558.95 281.194L1557.97 281ZM1507.57 282C1507.26 282 1507.09 281.913 1506.97 281.793C1506.83 281.648 1506.66 281.359 1506.55 280.804L1504.59 281.196C1504.74 281.975 1505.04 282.685 1505.56 283.207C1506.1 283.753 1506.81 284 1507.57 284V282ZM1506.55 280.803L1451.35 6.00305L1449.39 6.39693L1504.59 281.197L1506.55 280.803ZM1451.34 5.95745C1451.29 5.77928 1451.3 5.69008 1451.3 5.66438C1451.3 5.65362 1451.3 5.68175 1451.27 5.70709C1451.26 5.72359 1451.27 5.69456 1451.39 5.66151C1451.51 5.62788 1451.69 5.59998 1451.97 5.59998V3.59998C1451.22 3.59998 1450.41 3.73829 1449.86 4.29288C1449.24 4.91099 1449.22 5.73877 1449.4 6.44252L1451.34 5.95745ZM1451.97 5.59998H1497.17V3.59998H1451.97V5.59998ZM1497.17 5.59998C1497.53 5.59998 1497.73 5.68844 1497.84 5.78085C1497.96 5.87578 1498.1 6.06004 1498.2 6.44252L1500.14 5.95745C1499.96 5.27326 1499.64 4.65752 1499.09 4.21912C1498.54 3.7782 1497.87 3.59998 1497.17 3.59998V5.59998ZM1498.18 6.37622L1530.98 189.576L1532.95 189.224L1500.15 6.02375L1498.18 6.37622ZM1532.95 189.572L1564.95 6.37205L1562.98 6.02792L1530.98 189.228L1532.95 189.572ZM1564.94 6.44252C1565.03 6.06004 1565.17 5.87578 1565.29 5.78085C1565.41 5.68844 1565.6 5.59998 1565.97 5.59998V3.59998C1565.26 3.59998 1564.59 3.7782 1564.04 4.21912C1563.49 4.65752 1563.17 5.27326 1563 5.95746L1564.94 6.44252ZM1565.97 5.59998H1610.77V3.59998H1565.97V5.59998ZM1610.77 5.59998C1611.04 5.59998 1611.22 5.62788 1611.34 5.66151C1611.46 5.69456 1611.48 5.72359 1611.46 5.70709C1611.43 5.68175 1611.43 5.65363 1611.43 5.66439C1611.43 5.69008 1611.44 5.77928 1611.4 5.95746L1613.34 6.44252C1613.51 5.73877 1613.49 4.91099 1612.87 4.29288C1612.32 3.73829 1611.51 3.59998 1610.77 3.59998V5.59998ZM1611.38 6.00579L1556.98 280.806L1558.95 281.194L1613.35 6.39418L1611.38 6.00579ZM1556.99 280.804C1556.87 281.359 1556.7 281.648 1556.56 281.793C1556.44 281.913 1556.27 282 1555.97 282V284C1556.73 284 1557.43 283.753 1557.97 283.207C1558.49 282.685 1558.79 281.975 1558.95 281.196L1556.99 280.804ZM1555.97 282H1507.57V284H1555.97V282Z" fill="black" fill-opacity="0.25" mask="url(#path-1-outside-1_5_16)"/>
</svg>
