<svg width="39" height="45" viewBox="0 0 39 45" fill="none" xmlns="http://www.w3.org/2000/svg">
<path d="M15.013 44.212C14.693 44.212 14.533 44.052 14.533 43.732V26.548H0.901004C0.517005 26.548 0.325005 26.388 0.325005 26.068V18.484C0.325005 18.42 0.357005 18.324 0.421004 18.196C0.549004 18.004 0.709004 17.908 0.901004 17.908H14.533V0.435995C14.533 0.307997 14.693 0.243998 15.013 0.243998H23.077C23.333 0.243998 23.461 0.307997 23.461 0.435995V17.908H37.765C38.085 17.908 38.245 18.1 38.245 18.484V26.068C38.245 26.196 38.181 26.324 38.053 26.452C37.925 26.516 37.829 26.548 37.765 26.548H23.461V43.732C23.461 44.052 23.333 44.212 23.077 44.212H15.013Z" fill="white"/>
</svg>
