<svg width="364" height="626" viewBox="0 0 364 626" fill="none" xmlns="http://www.w3.org/2000/svg">
<g clip-path="url(#clip0_33_40)">
<path d="M203.473 137L203.473 116.787L346.239 116.787L346.239 66.0295C337.995 64.9814 329.302 63.8585 320.159 62.6607C311.166 61.4628 302.247 60.1902 293.404 58.8426C284.561 57.6448 276.242 56.447 268.448 55.2492C260.654 54.0514 253.834 52.8535 247.989 51.6557C237.947 49.7093 229.403 47.3137 222.359 44.4688C215.314 41.624 209.993 37.806 206.396 33.0147C202.799 28.3732 201 22.2344 201 14.5984C201 12.053 201.3 9.43278 201.899 6.7377C202.349 4.19234 202.949 1.94644 203.698 -7.00703e-06L220.56 -6.26996e-06C219.811 1.64699 219.136 3.51857 218.537 5.61475C218.087 7.71092 217.862 9.95682 217.862 12.3525C217.862 16.8443 219.661 20.3628 223.258 22.9082C227.005 25.6033 231.577 27.6995 236.972 29.1967C242.518 30.694 247.989 31.9667 253.385 33.0148C257.731 33.9131 263.502 34.9612 270.697 36.159C278.041 37.3568 286.584 38.6295 296.327 39.977C306.069 41.4743 316.636 42.9716 328.028 44.4689C339.569 46.1158 351.56 47.688 364 49.1852L364 137L203.473 137Z" fill="black" fill-opacity="0.3"/>
<path d="M364 169L364 188.024L276.157 188.024C272.422 188.024 268.314 187.949 263.832 187.798C259.5 187.798 255.167 187.722 250.835 187.571C246.502 187.42 242.618 187.194 239.182 186.892C235.895 186.741 233.356 186.59 231.563 186.439L231.563 187.345L364 276.352L364 299L204 299L204 279.976L290.947 279.976C294.98 279.976 299.313 280.051 303.944 280.202C308.725 280.353 313.281 280.504 317.613 280.655C322.095 280.957 326.054 281.183 329.49 281.334C332.926 281.485 335.466 281.636 337.109 281.787L337.109 280.882L204 191.648L204 169L364 169Z" fill="black" fill-opacity="0.3"/>
<path d="M281.612 480C269.19 480 257.891 478.417 247.714 475.252C237.687 472.087 229.007 467.338 221.673 461.008C214.34 454.828 208.728 447.065 204.837 437.719C200.946 428.525 199 417.822 199 405.613C199 392.951 200.946 381.948 204.837 372.602C208.878 363.257 214.49 355.494 221.673 349.314C229.007 343.134 237.762 338.537 247.939 335.522C258.116 332.507 269.415 331 281.837 331C298.299 331 312.667 333.713 324.939 339.14C337.211 344.566 346.789 352.781 353.673 363.785C360.558 374.939 364 388.957 364 405.839C364 421.968 360.558 435.534 353.673 446.537C346.939 457.541 337.361 465.831 324.939 471.408C312.667 477.136 298.224 480 281.612 480ZM281.612 352.48C268.143 352.48 256.544 354.364 246.816 358.132C237.088 361.9 229.605 367.704 224.367 375.542C219.129 383.531 216.51 393.554 216.51 405.613C216.51 417.822 219.129 427.771 224.367 435.458C229.605 443.296 237.088 449.1 246.816 452.868C256.544 456.636 268.143 458.52 281.612 458.52C301.816 458.52 317.605 454.3 328.98 445.859C340.503 437.418 346.265 424.078 346.265 405.839C346.265 393.63 343.646 383.531 338.408 375.542C333.32 367.704 325.912 361.9 316.184 358.132C306.605 354.364 295.082 352.48 281.612 352.48Z" fill="black" fill-opacity="0.3"/>
<path d="M4.50345 137L4.50345 116.787L149.021 116.787L149.021 66.0295C140.676 64.9814 131.876 63.8585 122.621 62.6607C113.517 61.4629 104.49 60.1902 95.5379 58.8426C86.5862 57.6448 78.1655 56.447 70.2759 55.2492C62.3862 54.0514 55.4828 52.8535 49.5655 51.6557C39.4 49.7093 30.7517 47.3137 23.6207 44.4689C16.4897 41.6241 11.1035 37.806 7.46207 33.0148C3.82069 28.3732 2 22.2344 2 14.5984C2 12.053 2.30346 9.43279 2.91035 6.73771C3.36553 4.19235 3.97242 1.94644 4.73104 -7.093e-06L21.8 -6.34689e-06C21.0414 1.64699 20.3586 3.51859 19.7517 5.61477C19.2966 7.71094 19.069 9.95686 19.069 12.3525C19.069 16.8443 20.8897 20.3628 24.531 22.9082C28.3241 25.6033 32.9517 27.6995 38.4138 29.1967C44.0276 30.694 49.5655 31.9667 55.0276 33.0148C59.4276 33.9131 65.269 34.9612 72.5517 36.159C79.9862 37.3568 88.6345 38.6295 98.4966 39.9771C108.359 41.4743 119.055 42.9716 130.586 44.4689C142.269 46.1159 154.407 47.688 167 49.1852L167 137L4.50345 137Z" fill="black" fill-opacity="0.3"/>
<path d="M51.9544 256.3C41.2979 251.463 32.3674 246.55 25.163 241.561C18.1087 236.724 12.7804 230.979 9.17817 224.328C5.72605 217.676 4 209.211 4 198.931C4 194.699 4.30019 190.693 4.90056 186.914C5.50092 183.285 6.32643 179.96 7.37707 176.936L27.4144 176.936C26.0635 179.96 24.9378 183.21 24.0373 186.687C23.2868 190.164 22.9116 193.792 22.9116 197.571C22.9116 203.164 23.6621 207.926 25.163 211.856C26.814 215.938 29.4406 219.49 33.0428 222.514C36.645 225.688 41.448 228.636 47.4516 231.357L167 169L167 191.449L78.5207 236.573C77.4701 237.177 76.1943 237.782 74.6934 238.387C73.3425 238.991 71.9167 239.596 70.4157 240.201C68.9148 240.956 67.4889 241.561 66.1381 242.015L66.1381 242.922C67.1888 243.375 68.3895 243.829 69.7403 244.282C71.2412 244.887 72.6671 245.416 74.018 245.869C75.5189 246.474 76.7946 247.003 77.8453 247.457L167 286.458L167 308L51.9544 256.3Z" fill="black" fill-opacity="0.3"/>
<path d="M83.6136 490C71.0413 490 59.605 488.407 49.3048 485.22C39.156 482.033 30.3705 477.253 22.9483 470.88C15.5261 464.659 9.84581 456.844 5.90749 447.436C1.96917 438.179 2.1484e-06 427.405 2.68568e-06 415.114C3.24285e-06 402.367 1.96917 391.29 5.90749 381.882C9.99729 372.473 15.6775 364.659 22.9483 358.437C30.3705 352.215 39.2317 347.587 49.532 344.552C59.8322 341.517 71.2685 340 83.8408 340C100.503 340 115.044 342.731 127.465 348.194C139.886 353.657 149.58 361.927 156.548 373.005C163.516 384.234 167 398.346 167 415.341C167 431.578 163.516 445.235 156.548 456.313C149.732 467.39 140.038 475.736 127.465 481.351C115.044 487.117 100.427 490 83.6136 490ZM83.6136 361.624C69.9809 361.624 58.2417 363.521 48.3959 367.314C38.5501 371.108 30.9764 376.95 25.6748 384.841C20.3732 392.883 17.7224 402.974 17.7224 415.114C17.7224 427.405 20.3732 437.42 25.6748 445.159C30.9764 453.05 38.5501 458.892 48.3959 462.686C58.2417 466.48 69.9809 468.376 83.6136 468.376C104.063 468.376 120.043 464.127 131.555 455.63C143.219 447.132 149.05 433.703 149.05 415.341C149.05 403.05 146.4 392.883 141.098 384.841C135.948 376.95 128.45 371.108 118.604 367.314C108.91 363.521 97.2463 361.624 83.6136 361.624Z" fill="black" fill-opacity="0.3"/>
</g>
<defs>
<clipPath id="clip0_33_40">
<rect width="626" height="364" fill="white" transform="translate(364) rotate(90)"/>
</clipPath>
</defs>
</svg>
