<svg width="394" height="387" viewBox="0 0 394 387" fill="none" xmlns="http://www.w3.org/2000/svg">
<g clip-path="url(#clip0_33_104)">
<path d="M172.19 298.254L147.048 283.738L249.673 105.986L186.537 69.5337C179.307 79.045 171.661 89.0623 163.599 99.5857C155.644 109.923 147.65 120.112 139.617 130.155C131.771 140.305 124.301 149.802 117.208 158.646C110.116 167.49 103.723 175.121 98.0315 181.538C88.3915 192.644 79.2703 201.561 70.6677 208.289C62.0652 215.017 53.4911 218.9 44.9455 219.937C36.5861 221.083 27.6572 218.914 18.1588 213.43C14.9926 211.602 11.9489 209.347 9.02748 206.665C6.18458 204.277 3.8219 201.918 1.93945 199.587L14.0606 178.592C15.5705 180.708 17.4137 182.892 19.5902 185.144C21.8743 187.209 24.5064 189.102 27.4863 190.822C33.0735 194.048 38.7432 194.336 44.4952 191.685C50.5411 188.955 56.4347 184.769 62.1759 179.126C68.0248 173.296 73.5405 167.399 78.723 161.433C82.965 156.666 88.4168 150.234 95.0784 142.137C101.848 133.853 109.572 124.13 118.252 112.967C127.117 101.913 136.576 89.8313 146.627 76.7237C156.972 63.537 167.547 49.7367 178.352 35.3228L287.583 98.3877L172.19 298.254Z" fill="#0D1A22"/>
<path d="M309.877 137.002L322.17 158.293L222.797 215.666C218.572 218.105 213.876 220.704 208.709 223.462C203.808 226.292 198.858 229.037 193.859 231.697C188.861 234.358 184.32 236.641 180.238 238.547C176.423 240.525 173.452 242.015 171.326 243.017L171.912 244.031L379.243 257.147L393.877 282.494L212.878 386.994L200.585 365.702L298.943 308.915C303.506 306.281 308.456 303.536 313.792 300.68C319.298 297.727 324.55 294.92 329.549 292.259C334.814 289.67 339.439 287.338 343.423 285.262C347.408 283.187 350.378 281.697 352.335 280.793L351.75 279.779L143.512 266.849L128.878 241.502L309.877 137.002Z" fill="#0D1A22"/>
</g>
<defs>
<clipPath id="clip0_33_104">
<rect width="393.877" height="386.994" fill="white"/>
</clipPath>
</defs>
</svg>
