<svg width="85" height="415" viewBox="0 0 85 415" fill="none" xmlns="http://www.w3.org/2000/svg">
<path d="M82.9434 38.3628C82.9434 38.6756 82.7479 38.832 82.3568 38.832L1.7594 38.7147C1.44655 38.7147 1.29013 38.5583 1.29013 38.2454L1.29013 0.586354C1.29013 0.273508 1.48566 0.117116 1.87672 0.117116L15.0163 0.117116C15.3292 0.117116 15.4856 0.273507 15.4856 0.586353L15.4856 24.6366L33.7872 24.6366L33.7872 0.586353C33.7872 0.273507 33.9436 0.117115 34.2565 0.117115L47.5134 -0.000213812C47.8263 -0.000213826 47.9827 0.156213 47.9827 0.469061L47.9827 24.6366L68.5133 24.6366L68.5133 0.46906C68.5133 0.156212 68.7089 -0.000214738 69.0999 -0.000214755L82.4742 -0.00021534C82.787 -0.000215354 82.9434 0.156211 82.9434 0.46906L82.9434 38.3628Z" fill="white"/>
<path d="M82.9434 99.6528C82.9434 99.9656 82.7479 100.122 82.3568 100.122L1.7594 99.8875C1.44655 99.8875 1.29013 99.731 1.29013 99.4182L1.29013 75.7199C1.29013 71.4965 2.34599 67.625 4.45772 64.1055C6.49123 60.5077 9.26775 57.653 12.7873 55.5413C16.2286 53.4295 20.1392 52.3737 24.5191 52.3737C27.4129 52.3737 30.033 52.8038 32.3794 53.6642C34.6475 54.5245 36.6028 55.5413 38.2453 56.7144C39.8095 57.8876 40.9827 58.9435 41.7648 59.882C46.4575 55.6586 51.9715 53.5468 58.3067 53.5468L82.3568 53.4295C82.7479 53.4295 82.9434 53.625 82.9434 54.0161L82.9434 67.273C82.9434 67.5859 82.8261 67.7423 82.5915 67.7423L58.3067 67.7423C55.491 67.7423 53.0665 68.7591 51.0329 70.7926C48.9212 72.7479 47.8654 75.1724 47.8654 78.0663L47.8654 85.8093L82.3568 85.9266C82.7479 85.9266 82.9434 86.083 82.9434 86.3959L82.9434 99.6528ZM33.7872 85.8093L33.7872 75.7199C33.7872 73.2954 32.8878 71.1445 31.0889 69.2675C29.29 67.3904 27.1001 66.4518 24.5191 66.4518C22.0163 66.4518 19.8655 67.3904 18.0666 69.2675C16.2677 71.0663 15.3683 73.2172 15.3683 75.7199L15.3683 85.8093L33.7872 85.8093Z" fill="white"/>
<path d="M84.117 136.729C84.117 140.953 83.0611 144.824 80.9494 148.344C78.7595 151.785 75.9047 154.562 72.3852 156.673C68.7874 158.785 64.8377 159.841 60.5361 159.841L23.3463 159.724C19.0446 159.724 15.134 158.707 11.6145 156.673C8.09494 154.562 5.27931 151.746 3.16759 148.226C1.05586 144.707 -8.29048e-07 140.874 -1.01024e-06 136.729C-1.19485e-06 132.506 1.05586 128.673 3.16758 125.232C5.2793 121.791 8.09493 119.053 11.6145 117.02C15.134 114.908 19.0446 113.852 23.3463 113.852L60.5361 113.735C64.8377 113.735 68.7874 114.791 72.3852 116.902C75.9047 118.936 78.7595 121.712 80.9494 125.232C83.0611 128.673 84.117 132.506 84.117 136.729ZM69.9215 136.729C69.9215 134.383 68.983 132.349 67.1059 130.629C65.1506 128.83 62.9606 127.93 60.5361 127.93L23.3463 128.048C20.7653 128.048 18.5753 128.869 16.7765 130.511C14.9776 132.154 14.0782 134.226 14.0782 136.729C14.0782 139.154 14.9776 141.226 16.7765 142.947C18.4971 144.668 20.6871 145.528 23.3463 145.528L60.5361 145.528C63.1171 145.528 65.3461 144.668 67.2232 142.947C69.0221 141.226 69.9215 139.154 69.9215 136.729Z" fill="white"/>
<path d="M82.9434 225.668C82.9434 225.981 82.7479 226.138 82.3568 226.138L1.7594 225.903C1.44655 225.903 1.29013 225.747 1.29013 225.434L1.29013 211.121C1.29013 210.808 1.44655 210.534 1.7594 210.3L17.2454 199.624L1.7594 188.948C1.44655 188.713 1.29013 188.44 1.29013 188.127L1.29013 173.697C1.29013 173.384 1.44655 173.227 1.7594 173.227L82.3568 172.993C82.7479 172.993 82.9434 173.149 82.9434 173.462L82.9434 186.719C82.9434 187.032 82.7479 187.188 82.3568 187.188L22.5247 187.305L40.357 199.624L22.5247 211.825L82.3568 211.942C82.7479 211.942 82.9434 212.099 82.9434 212.411L82.9434 225.668Z" fill="white"/>
<path d="M82.9434 301.733C82.9434 302.045 82.7479 302.202 82.3568 302.202L1.7594 302.085C1.44655 302.085 1.29013 301.928 1.29013 301.615L1.29013 263.956C1.29013 263.643 1.48566 263.487 1.87672 263.487L15.0163 263.487C15.3292 263.487 15.4856 263.643 15.4856 263.956L15.4856 288.006L33.7872 288.006L33.7872 263.956C33.7872 263.643 33.9436 263.487 34.2565 263.487L47.5134 263.37C47.8263 263.37 47.9827 263.526 47.9827 263.839L47.9827 288.006L68.5133 288.006L68.5133 263.839C68.5133 263.526 68.7089 263.37 69.0999 263.37L82.4742 263.37C82.787 263.37 82.9434 263.526 82.9434 263.839L82.9434 301.733Z" fill="white"/>
<path d="M82.9434 355.69C82.9434 356.003 82.7479 356.159 82.3568 356.159L1.7594 356.042C1.44655 356.042 1.29013 355.885 1.29013 355.573L1.29013 317.914C1.29013 317.601 1.48566 317.444 1.87672 317.444L15.0163 317.444C15.3292 317.444 15.4856 317.601 15.4856 317.914L15.4856 341.964L33.7872 341.964L33.7872 317.914C33.7872 317.601 33.9436 317.444 34.2565 317.444L47.5134 317.327C47.8263 317.327 47.9827 317.483 47.9827 317.796L47.9827 341.964L68.5133 341.964L68.5133 317.796C68.5133 317.483 68.7089 317.327 69.0999 317.327L82.4742 317.327C82.787 317.327 82.9434 317.483 82.9434 317.796L82.9434 355.69Z" fill="white"/>
<path d="M84.1165 392.006C84.1165 396.229 83.0606 400.101 80.9489 403.62C78.759 407.061 75.9043 409.838 72.3847 411.95C68.787 413.983 64.8373 415 60.5356 415L55.139 415C54.7479 415 54.5524 414.804 54.5524 414.413L54.5524 401.274C54.5524 400.961 54.7479 400.805 55.139 400.805L60.5356 400.805C63.1166 400.805 65.3456 399.944 67.2227 398.224C69.0216 396.503 69.921 394.43 69.921 392.006C69.921 389.581 68.9825 387.508 67.1054 385.788C65.2283 384.067 63.0384 383.207 60.5356 383.207C57.6418 383.207 55.139 385.084 53.0272 388.838C52.3233 390.089 51.2284 392.045 49.7424 394.704C48.2563 397.363 46.8485 399.866 45.5189 402.212C43.0161 406.514 39.8876 409.721 36.1335 411.832C32.3011 413.866 27.9994 414.883 23.2285 414.883C18.8486 414.883 14.938 413.827 11.4967 411.715C7.97715 409.603 5.20063 406.827 3.16712 403.386C1.13361 399.866 0.116851 396.073 0.116851 392.006C0.116851 387.86 1.17271 384.067 3.28444 380.626C5.31794 377.106 8.09447 374.33 11.614 372.296C15.0553 370.185 18.9268 369.129 23.2285 369.129L32.8486 369.129C33.1614 369.129 33.3178 369.285 33.3178 369.598L33.3178 382.738C33.3178 383.05 33.1614 383.207 32.8486 383.207L23.2285 383.324C20.4911 383.324 18.262 384.184 16.5414 385.905C14.8207 387.626 13.9604 389.659 13.9604 392.006C13.9604 394.43 14.8989 396.503 16.776 398.224C18.5749 399.944 20.7257 400.805 23.2285 400.805C25.8095 400.805 27.9603 400.257 29.681 399.162C31.4016 398.067 33.0441 396.073 34.6083 393.179C34.843 392.788 35.2731 392.045 35.8988 390.95C36.4463 389.777 37.1111 388.525 37.8932 387.196C38.5971 385.866 39.2228 384.693 39.7703 383.676C40.3178 382.581 40.6698 381.916 40.8262 381.682C43.0161 377.771 45.7144 374.682 48.9211 372.414C52.0496 370.145 55.9211 369.011 60.5356 369.011C64.9937 369.011 69.0216 370.067 72.6194 372.179C76.1389 374.212 78.9545 376.989 81.0662 380.509C83.0998 383.95 84.1165 387.782 84.1165 392.006Z" fill="white"/>
</svg>
