<svg width="42" height="43" viewBox="0 0 42 43" fill="none" xmlns="http://www.w3.org/2000/svg">
<path d="M29 17.9261H26V13.9261H12C10.9 13.9261 10 14.8261 10 15.9261V26.9261H12C12 28.5861 13.34 29.9261 15 29.9261C16.66 29.9261 18 28.5861 18 26.9261H24C24 28.5861 25.34 29.9261 27 29.9261C28.66 29.9261 30 28.5861 30 26.9261H32V21.9261L29 17.9261ZM28.5 19.4261L30.46 21.9261H26V19.4261H28.5ZM15 27.9261C14.45 27.9261 14 27.4761 14 26.9261C14 26.3761 14.45 25.9261 15 25.9261C15.55 25.9261 16 26.3761 16 26.9261C16 27.4761 15.55 27.9261 15 27.9261ZM17.22 24.9261C16.67 24.3161 15.89 23.9261 15 23.9261C14.11 23.9261 13.33 24.3161 12.78 24.9261H12V15.9261H24V24.9261H17.22ZM27 27.9261C26.45 27.9261 26 27.4761 26 26.9261C26 26.3761 26.45 25.9261 27 25.9261C27.55 25.9261 28 26.3761 28 26.9261C28 27.4761 27.55 27.9261 27 27.9261Z" fill="#606060"/>
</svg>
