<svg width="53" height="53" viewBox="0 0 53 53" fill="none" xmlns="http://www.w3.org/2000/svg">
<g clip-path="url(#clip0_467_168)">
<circle cx="26.5" cy="26.5" r="26.5" fill="#D9D9D9"/>
<circle cx="26.9999" cy="27" r="19.1667" fill="#007EA7"/>
<path d="M10.5298 36.8086C12.863 40.7173 16.5486 43.7254 20.9409 45.1877C21.8998 45.363 22.2493 44.7711 22.2493 44.2628C22.2493 44.0524 22.2457 43.6805 22.241 43.183C22.2355 42.6067 22.2285 41.8617 22.2234 41.0036C16.8921 42.1614 15.7672 38.4338 15.7672 38.4338C14.8954 36.2206 13.6387 35.6311 13.6387 35.6311C11.8985 34.4415 13.7705 34.4651 13.7705 34.4651C15.6943 34.6015 16.7062 36.4406 16.7062 36.4406C18.4158 39.3692 21.1927 38.5232 22.2846 38.0338C22.4587 36.7948 22.9529 35.95 23.5012 35.4711C19.2454 34.9875 14.7706 33.3426 14.7706 25.9981C14.7706 23.906 15.5178 22.1952 16.7438 20.855C16.5462 20.3702 15.8884 18.4217 16.9309 15.7826C16.9309 15.7826 18.5406 15.2672 22.2022 17.7475C23.7307 17.3228 25.3709 17.1098 27.0005 17.1028C28.6278 17.1098 30.268 17.3228 31.7988 17.7475C35.4581 15.2672 37.0642 15.7826 37.0642 15.7826C38.1102 18.4217 37.4525 20.3702 37.2548 20.855C38.4832 22.1952 39.2257 23.906 39.2257 25.9981C39.2257 33.3614 34.7439 34.9816 30.4739 35.4558C31.1622 36.0476 31.7753 37.2172 31.7753 39.0057C31.7753 40.7187 31.7647 42.2108 31.7578 43.1992C31.7543 43.6887 31.7517 44.0547 31.7517 44.2628C31.7517 44.7758 32.0965 45.3724 33.0695 45.1853C36.5686 44.0173 39.6186 41.8689 41.8929 39.0657C38.3789 43.3979 33.0127 46.1666 26.9999 46.1666C19.9989 46.1666 13.8747 42.413 10.5298 36.8086Z" fill="#D9D9D9"/>
</g>
<defs>
<clipPath id="clip0_467_168">
<rect width="53" height="53" fill="white"/>
</clipPath>
</defs>
</svg>
