<svg width="54" height="53" viewBox="0 0 54 53" fill="none" xmlns="http://www.w3.org/2000/svg">
<g clip-path="url(#clip0_165_247)">
<circle cx="27" cy="26.5" r="26.5" fill="#D9D9D9"/>
<g clip-path="url(#clip1_165_247)">
<path d="M27.5 13.8812C31.775 13.8812 32.2813 13.9 33.9625 13.975C35.525 14.0437 36.3688 14.3063 36.9313 14.525C37.675 14.8125 38.2125 15.1625 38.7688 15.7188C39.3313 16.2813 39.675 16.8125 39.9625 17.5563C40.1813 18.1188 40.4438 18.9687 40.5125 20.525C40.5875 22.2125 40.6063 22.7188 40.6063 26.9875C40.6063 31.2625 40.5875 31.7688 40.5125 33.45C40.4438 35.0125 40.1813 35.8563 39.9625 36.4188C39.675 37.1625 39.325 37.7 38.7688 38.2563C38.2063 38.8188 37.675 39.1625 36.9313 39.45C36.3688 39.6688 35.5188 39.9313 33.9625 40C32.275 40.075 31.7688 40.0938 27.5 40.0938C23.225 40.0938 22.7188 40.075 21.0375 40C19.475 39.9313 18.6313 39.6688 18.0688 39.45C17.325 39.1625 16.7875 38.8125 16.2313 38.2563C15.6688 37.6938 15.325 37.1625 15.0375 36.4188C14.8188 35.8563 14.5563 35.0063 14.4875 33.45C14.4125 31.7625 14.3938 31.2563 14.3938 26.9875C14.3938 22.7125 14.4125 22.2062 14.4875 20.525C14.5563 18.9625 14.8188 18.1188 15.0375 17.5563C15.325 16.8125 15.675 16.275 16.2313 15.7188C16.7938 15.1563 17.325 14.8125 18.0688 14.525C18.6313 14.3063 19.4813 14.0437 21.0375 13.975C22.7188 13.9 23.225 13.8812 27.5 13.8812ZM27.5 11C23.1563 11 22.6125 11.0187 20.9063 11.0938C19.2063 11.1688 18.0375 11.4437 17.025 11.8375C15.9688 12.25 15.075 12.7938 14.1875 13.6875C13.2938 14.575 12.75 15.4688 12.3375 16.5188C11.9437 17.5375 11.6688 18.7 11.5938 20.4C11.5188 22.1125 11.5 22.6563 11.5 27C11.5 31.3438 11.5188 31.8875 11.5938 33.5938C11.6688 35.2938 11.9437 36.4625 12.3375 37.475C12.75 38.5313 13.2938 39.425 14.1875 40.3125C15.075 41.2 15.9688 41.75 17.0188 42.1563C18.0375 42.55 19.2 42.825 20.9 42.9C22.6063 42.975 23.15 42.9937 27.4938 42.9937C31.8375 42.9937 32.3813 42.975 34.0875 42.9C35.7875 42.825 36.9563 42.55 37.9688 42.1563C39.0188 41.75 39.9125 41.2 40.8 40.3125C41.6875 39.425 42.2375 38.5313 42.6438 37.4813C43.0375 36.4625 43.3125 35.3 43.3875 33.6C43.4625 31.8938 43.4813 31.35 43.4813 27.0063C43.4813 22.6625 43.4625 22.1188 43.3875 20.4125C43.3125 18.7125 43.0375 17.5438 42.6438 16.5313C42.25 15.4688 41.7063 14.575 40.8125 13.6875C39.925 12.8 39.0313 12.25 37.9813 11.8438C36.9625 11.45 35.8 11.175 34.1 11.1C32.3875 11.0188 31.8438 11 27.5 11Z" fill="#007EA7"/>
<path d="M27.5 18.7812C22.9625 18.7812 19.2812 22.4625 19.2812 27C19.2812 31.5375 22.9625 35.2188 27.5 35.2188C32.0375 35.2188 35.7188 31.5375 35.7188 27C35.7188 22.4625 32.0375 18.7812 27.5 18.7812ZM27.5 32.3312C24.5563 32.3312 22.1687 29.9438 22.1687 27C22.1687 24.0563 24.5563 21.6687 27.5 21.6687C30.4438 21.6687 32.8312 24.0563 32.8312 27C32.8312 29.9438 30.4438 32.3312 27.5 32.3312Z" fill="#007EA7"/>
<path d="M37.9625 18.4564C37.9625 19.5189 37.1 20.3751 36.0438 20.3751C34.9813 20.3751 34.125 19.5126 34.125 18.4564C34.125 17.3938 34.9875 16.5376 36.0438 16.5376C37.1 16.5376 37.9625 17.4001 37.9625 18.4564Z" fill="#007EA7"/>
</g>
</g>
<defs>
<clipPath id="clip0_165_247">
<rect width="53" height="53" fill="white" transform="translate(0.5)"/>
</clipPath>
<clipPath id="clip1_165_247">
<rect width="32" height="32" fill="white" transform="translate(11.5 11)"/>
</clipPath>
</defs>
</svg>
