<svg width="54" height="53" viewBox="0 0 54 53" fill="none" xmlns="http://www.w3.org/2000/svg">
<g clip-path="url(#clip0_165_255)">
<circle cx="27" cy="26.5" r="26.5" fill="#D9D9D9"/>
<path d="M9 45L11.5305 35.7555C9.969 33.0495 9.1485 29.982 9.15 26.8365C9.1545 17.0025 17.157 9 26.9895 9C31.7609 9.0015 36.2399 10.86 39.6089 14.232C42.9764 17.604 44.8304 22.086 44.8289 26.853C44.8244 36.6885 36.8219 44.691 26.9895 44.691C24.0045 44.6895 21.063 43.941 18.4575 42.519L9 45ZM18.8955 39.2895C21.4095 40.782 23.8095 41.676 26.9835 41.6775C35.1554 41.6775 41.8124 35.0265 41.8169 26.85C41.8199 18.657 35.1944 12.015 26.9955 12.012C18.8175 12.012 12.165 18.663 12.162 26.838C12.1605 30.1755 13.1385 32.6745 14.781 35.289L13.2825 40.761L18.8955 39.2895ZM35.9759 31.0935C35.8649 30.9075 35.5679 30.7965 35.1209 30.573C34.6754 30.3495 32.4839 29.271 32.0744 29.1225C31.6664 28.974 31.3694 28.899 31.071 29.346C30.774 29.7915 29.919 30.7965 29.6595 31.0935C29.4 31.3905 29.139 31.428 28.6935 31.2045C28.248 30.981 26.811 30.5115 25.1085 28.992C23.784 27.81 22.8885 26.3505 22.629 25.9035C22.3695 25.458 22.602 25.2165 22.824 24.9945C23.025 24.795 23.2695 24.474 23.493 24.213C23.7195 23.955 23.793 23.769 23.943 23.4705C24.0915 23.1735 24.018 22.9125 23.9055 22.689C23.793 22.467 22.902 20.2725 22.5315 19.38C22.1685 18.5115 21.801 18.6285 21.528 18.615L20.673 18.6C20.376 18.6 19.893 18.711 19.485 19.158C19.077 19.605 17.925 20.682 17.925 22.8765C17.925 25.071 19.5225 27.1905 19.7445 27.4875C19.968 27.7845 22.887 32.2875 27.3585 34.218C28.422 34.677 29.253 34.9515 29.8995 35.157C30.9675 35.496 31.9394 35.448 32.7074 35.334C33.5639 35.2065 35.3444 34.2555 35.7164 33.2145C36.0884 32.172 36.0884 31.2795 35.9759 31.0935Z" fill="#007EA7"/>
</g>
<defs>
<clipPath id="clip0_165_255">
<rect width="53" height="53" fill="white" transform="translate(0.5)"/>
</clipPath>
</defs>
</svg>
